<?xml version="1.0" encoding="utf-8"?>
<!DOCTYPE svg PUBLIC "-//W3C//DTD SVG 20010904//EN" "http://www.w3.org/TR/2001/REC-SVG-20010904/DTD/svg10.dtd">
<svg version="1.0" xmlns="http://www.w3.org/2000/svg" width="50pt" height="50pt" viewBox="0 0 50 50" style="" preserveAspectRatio="xMidYMid meet">
<g fill="#000000FF" stroke="#000000FF">
<path d="M 3.000 3.000 C 1.133 4.867 1.000 6.333 1.000 25.000 C 1.000 43.667 1.133 45.133 3.000 47.000 C 4.867 48.867 6.333 49.000 25.000 49.000 C 43.667 49.000 45.133 48.867 47.000 47.000 C 48.867 45.133 49.000 43.667 49.000 25.000 C 49.000 6.333 48.867 4.867 47.000 3.000 C 45.133 1.133 43.667 1.000 25.000 1.000 C 6.333 1.000 4.867 1.133 3.000 3.000 M 32.777 10.557 C 35.539 12.491 35.737 17.263 33.162 19.838 C 31.378 21.622 31.393 21.756 33.662 24.394 C 39.669 31.377 33.193 41.000 22.487 41.000 C 15.233 41.000 11.591 33.332 16.113 27.583 C 19.281 23.556 21.500 24.549 21.500 29.992 C 21.500 33.489 21.889 34.531 23.298 34.810 C 25.626 35.270 28.000 33.273 28.000 30.855 C 28.000 29.810 26.200 27.003 24.000 24.616 C 20.893 21.245 20.000 19.481 20.000 16.711 C 20.000 10.419 27.454 6.828 32.777 10.557 "/></g>
<g fill="#FFFFFFFF" stroke="#FFFFFFFF">
<path d="M 22.635 11.073 C 18.496 14.328 18.985 19.175 24.000 24.616 C 26.200 27.003 28.000 29.810 28.000 30.855 C 28.000 33.273 25.626 35.270 23.298 34.810 C 21.889 34.531 21.500 33.489 21.500 29.992 C 21.500 24.549 19.281 23.556 16.113 27.583 C 11.591 33.332 15.233 41.000 22.487 41.000 C 33.193 41.000 39.669 31.377 33.662 24.394 C 31.393 21.756 31.378 21.622 33.162 19.838 C 34.173 18.827 35.000 16.676 35.000 15.057 C 35.000 9.440 27.701 7.088 22.635 11.073 M 30.334 15.427 C 31.118 17.470 28.682 19.282 27.176 17.776 C 26.529 17.129 26.000 16.015 26.000 15.300 C 26.000 13.536 29.649 13.643 30.334 15.427 "/></g>
<g fill="#000000FF" stroke="#000000FF">
<path d="M 26.000 15.378 C 26.000 17.074 28.441 19.226 29.342 18.325 C 30.827 16.840 29.946 14.000 28.000 14.000 C 26.900 14.000 26.000 14.620 26.000 15.378 "/></g>
</svg>
